<?xml version="1.0" encoding="utf-8"?>
<!-- Generator: Adobe Illustrator 27.0.1, SVG Export Plug-In . SVG Version: 6.00 Build 0)  -->
<svg version="1.1" id="레이어_1" xmlns="http://www.w3.org/2000/svg" xmlns:xlink="http://www.w3.org/1999/xlink" x="0px"
	 y="0px" viewBox="0 0 1243 2160" style="enable-background:new 0 0 1243 2160;" xml:space="preserve">
<style type="text/css">
	.st0{fill:none;stroke:#FFFFFF;stroke-width:0.1;}
	.st1{fill:none;stroke:#FEDF79;stroke-width:0.5;stroke-dasharray:2;}
	.st2{fill:none;stroke:#FEDF79;stroke-width:0.5;stroke-miterlimit:10;}
</style>
<g id="그룹_323" transform="translate(716 -4861.644)">
	<g id="타원_5" transform="translate(-716 5191)">
		<path class="st0" d="M-0.3,176.6c165.9,72.5,279.9,293.6,279.4,541.9c-0.4,247.3-114.2,466.9-279.4,539.1
			C-0.3,897.3-0.3,537-0.3,176.6z"/>
	</g>
	<g id="타원_5_00000073705577646910197470000016436756760516576702_" transform="translate(-716 5191)">
		<path class="st0" d="M0.4,15C251.3,111.2,423.7,404.8,423,734.5c-0.7,328.3-172.7,619.9-422.6,715.7C0.4,971.8,0.4,493.4,0.4,15z"
			/>
	</g>
	<g id="타원_5_00000065781504721014588590000012529020177315556017_" transform="translate(-716 5191)">
		<path class="st0" d="M-1-140.4C325.7-23.3,550.1,334.1,549.2,735.4C548.4,1135,324.3,1489.9-1,1606.6C-1,1024.3-1,441.9-1-140.4z"
			/>
	</g>
</g>
<line id="선_9" class="st1" x1="126.4" y1="238.9" x2="197.1" y2="139"/>
<line id="선_10" class="st1" x1="139.7" y1="551.7" x2="363.5" y2="224.5"/>
<line id="선_11" class="st1" x1="144" y1="565.4" x2="474.6" y2="399.9"/>
<line id="선_12" class="st1" x1="406.1" y1="734.9" x2="643.9" y2="642.9"/>
<line id="선_13" class="st1" x1="565.1" y1="920.9" x2="881" y2="855.9"/>
<line id="선_14" class="st1" x1="441.7" y1="1128.9" x2="800.8" y2="1059.9"/>
<line id="선_15" class="st1" x1="535.8" y1="1260.9" x2="663.4" y2="1260.9"/>
<line id="선_16" class="st1" x1="480" y1="1513.9" x2="780.6" y2="1554.9"/>
<line id="선_18" class="st1" x1="176" y1="1895.9" x2="284.7" y2="2026.9"/>
<line id="선_17" class="st1" x1="162" y1="1525.9" x2="582.5" y2="1813.9"/>
<path class="st2" d="M-0.3,495.9"/>
</svg>
